<svg width="37" height="37" viewBox="0 0 37 37" fill="none" xmlns="http://www.w3.org/2000/svg">
<path d="M19.59 25.7567L25.7562 19.5905C26.0443 19.3006 26.2059 18.9086 26.2059 18.5C26.2059 18.0914 26.0443 17.6994 25.7562 17.4095L19.59 11.2434C19.3001 10.9587 18.9094 10.7999 18.503 10.8018C18.0966 10.8036 17.7073 10.9659 17.42 11.2533C17.1326 11.5406 16.9703 11.9299 16.9685 12.3363C16.9666 12.7427 17.1254 13.1334 17.4101 13.4233L20.9451 16.9584H12.3334C11.9245 16.9584 11.5324 17.1208 11.2433 17.4099C10.9542 17.699 10.7917 18.0912 10.7917 18.5C10.7917 18.9089 10.9542 19.3011 11.2433 19.5902C11.5324 19.8793 11.9245 20.0417 12.3334 20.0417H20.9451L17.41 23.5768C17.124 23.8665 16.9641 24.2576 16.9654 24.6647C16.9667 25.0719 17.129 25.462 17.4169 25.7499C17.7048 26.0378 18.0949 26.2001 18.5021 26.2013C18.9092 26.2026 19.3003 26.0428 19.59 25.7567Z" fill="#0EC093"/>
<path d="M33.9166 18.4999C33.9166 15.4508 33.0124 12.4701 31.3184 9.93488C29.6244 7.39963 27.2167 5.42363 24.3996 4.25678C21.5826 3.08993 18.4828 2.78463 15.4923 3.37949C12.5017 3.97434 9.75476 5.44264 7.5987 7.5987C5.44264 9.75476 3.97434 12.5017 3.37949 15.4923C2.78463 18.4828 3.08993 21.5826 4.25678 24.3996C5.42363 27.2167 7.39963 29.6244 9.93488 31.3184C12.4701 33.0124 15.4508 33.9166 18.4999 33.9166C22.5873 33.912 26.5059 32.2863 29.3961 29.3961C32.2863 26.5059 33.912 22.5873 33.9166 18.4999ZM17.41 25.7566C17.2668 25.6134 17.1532 25.4435 17.0757 25.2565C16.9982 25.0695 16.9583 24.869 16.9583 24.6665C16.9583 24.4641 16.9982 24.2636 17.0757 24.0766C17.1532 23.8896 17.2668 23.7197 17.41 23.5765L20.9449 20.0416H12.3333C11.9244 20.0416 11.5323 19.8792 11.2431 19.59C10.954 19.3009 10.7916 18.9088 10.7916 18.4999C10.7916 18.0911 10.954 17.6989 11.2431 17.4098C11.5323 17.1207 11.9244 16.9583 12.3333 16.9583H20.9449L17.41 13.4232C17.1252 13.1332 16.9665 12.7426 16.9683 12.3362C16.9702 11.9297 17.1324 11.5405 17.4198 11.2531C17.7072 10.9658 18.0964 10.8035 18.5028 10.8016C18.9092 10.7998 19.2999 10.9585 19.5899 11.2433L25.7561 17.4095C26.0441 17.6993 26.2057 18.0914 26.2057 18.5C26.2057 18.9086 26.0441 19.3006 25.7561 19.5905L19.5899 25.7566C19.4468 25.8997 19.2769 26.0133 19.0898 26.0908C18.9028 26.1683 18.7024 26.2082 18.4999 26.2082C18.2975 26.2082 18.097 26.1683 17.91 26.0908C17.723 26.0133 17.5531 25.8997 17.41 25.7566Z" fill="#FCE0EF"/>
</svg>
