<svg width="37" height="37" viewBox="0 0 37 37" fill="none" xmlns="http://www.w3.org/2000/svg">
<path d="M19.5899 25.7567L25.7561 19.5905C26.0441 19.3006 26.2058 18.9086 26.2058 18.5C26.2058 18.0914 26.0441 17.6994 25.7561 17.4095L19.5899 11.2434C19.2999 10.9587 18.9093 10.7999 18.5029 10.8018C18.0964 10.8036 17.7072 10.9659 17.4198 11.2533C17.1325 11.5406 16.9702 11.9299 16.9684 12.3363C16.9665 12.7427 17.1252 13.1334 17.41 13.4233L20.945 16.9584H12.3333C11.9244 16.9584 11.5323 17.1208 11.2432 17.4099C10.9541 17.699 10.7916 18.0912 10.7916 18.5C10.7916 18.9089 10.9541 19.3011 11.2432 19.5902C11.5323 19.8793 11.9244 20.0417 12.3333 20.0417H20.945L17.4099 23.5768C17.1238 23.8665 16.964 24.2576 16.9653 24.6647C16.9666 25.0719 17.1289 25.462 17.4168 25.7499C17.7047 26.0378 18.0948 26.2001 18.502 26.2013C18.9091 26.2026 19.3002 26.0428 19.5899 25.7567Z" fill="#0EC093"/>
<path d="M33.9167 18.4999C33.9167 15.4508 33.0125 12.4701 31.3185 9.93488C29.6245 7.39963 27.2168 5.42363 24.3998 4.25678C21.5827 3.08993 18.4829 2.78463 15.4924 3.37949C12.5019 3.97434 9.75488 5.44264 7.59882 7.5987C5.44276 9.75476 3.97446 12.5017 3.37961 15.4923C2.78475 18.4828 3.09005 21.5826 4.2569 24.3996C5.42376 27.2167 7.39975 29.6244 9.93501 31.3184C12.4703 33.0124 15.4509 33.9166 18.5 33.9166C22.5874 33.912 26.5061 32.2863 29.3963 29.3961C32.2865 26.5059 33.9122 22.5873 33.9167 18.4999ZM17.4101 25.7566C17.2669 25.6134 17.1533 25.4435 17.0758 25.2565C16.9983 25.0695 16.9584 24.869 16.9584 24.6665C16.9584 24.4641 16.9983 24.2636 17.0758 24.0766C17.1533 23.8896 17.2669 23.7197 17.4101 23.5765L20.945 20.0416H12.3334C11.9245 20.0416 11.5324 19.8792 11.2433 19.59C10.9541 19.3009 10.7917 18.9088 10.7917 18.4999C10.7917 18.0911 10.9541 17.6989 11.2433 17.4098C11.5324 17.1207 11.9245 16.9583 12.3334 16.9583H20.945L17.4101 13.4232C17.1253 13.1332 16.9666 12.7426 16.9684 12.3362C16.9703 11.9297 17.1325 11.5405 17.4199 11.2531C17.7073 10.9658 18.0965 10.8035 18.5029 10.8016C18.9093 10.7998 19.3 10.9585 19.59 11.2433L25.7562 17.4095C26.0442 17.6993 26.2059 18.0914 26.2059 18.5C26.2059 18.9086 26.0442 19.3006 25.7562 19.5905L19.59 25.7566C19.4469 25.8997 19.277 26.0133 19.09 26.0908C18.9029 26.1683 18.7025 26.2082 18.5 26.2082C18.2976 26.2082 18.0972 26.1683 17.9101 26.0908C17.7231 26.0133 17.5532 25.8997 17.4101 25.7566Z" fill="#FCE0EF"/>
</svg>
