<svg width="26" height="28" viewBox="0 0 26 28" fill="none" xmlns="http://www.w3.org/2000/svg">
<path d="M7.58333 12.8333V8.16668C7.58333 6.61958 8.15402 5.13585 9.16984 4.04189C10.1857 2.94793 11.5634 2.33334 13 2.33334C14.4366 2.33334 15.8143 2.94793 16.8302 4.04189C17.846 5.13585 18.4167 6.61958 18.4167 8.16668V12.8333M5.41667 12.8333H20.5833C21.78 12.8333 22.75 13.878 22.75 15.1667V23.3333C22.75 24.622 21.78 25.6667 20.5833 25.6667H5.41667C4.22005 25.6667 3.25 24.622 3.25 23.3333V15.1667C3.25 13.878 4.22005 12.8333 5.41667 12.8333Z" stroke="#F3F3F3" stroke-width="4" stroke-linecap="round" stroke-linejoin="round"/>
</svg>
