<svg width="30" height="29" viewBox="0 0 30 29" fill="none" xmlns="http://www.w3.org/2000/svg">
<path d="M22.4033 14.0408C22.3458 13.8924 22.2596 13.7569 22.1496 13.642L16.1079 7.60036C15.9953 7.48769 15.8615 7.39832 15.7143 7.33735C15.5671 7.27638 15.4093 7.245 15.25 7.245C14.9282 7.245 14.6196 7.37282 14.3921 7.60036C14.2794 7.71302 14.1901 7.84677 14.1291 7.99397C14.0681 8.14117 14.0367 8.29894 14.0367 8.45827C14.0367 8.78005 14.1645 9.08866 14.3921 9.31619L18.3796 13.2916H9.20833C8.88786 13.2916 8.58052 13.4189 8.35391 13.6455C8.12731 13.8721 8 14.1795 8 14.4999C8 14.8204 8.12731 15.1278 8.35391 15.3544C8.58052 15.581 8.88786 15.7083 9.20833 15.7083H18.3796L14.3921 19.6837C14.2788 19.796 14.1889 19.9297 14.1276 20.0769C14.0662 20.2242 14.0347 20.3821 14.0347 20.5416C14.0347 20.7011 14.0662 20.8591 14.1276 21.0063C14.1889 21.1535 14.2788 21.2872 14.3921 21.3995C14.5044 21.5128 14.6381 21.6027 14.7853 21.664C14.9325 21.7254 15.0905 21.7569 15.25 21.7569C15.4095 21.7569 15.5675 21.7254 15.7147 21.664C15.8619 21.6027 15.9956 21.5128 16.1079 21.3995L22.1496 15.3579C22.2596 15.2429 22.3458 15.1074 22.4033 14.9591C22.5242 14.6649 22.5242 14.335 22.4033 14.0408Z" fill="#010101"/>
</svg>
